<svg width="14" height="8" viewBox="0 0 14 8" fill="none" xmlns="http://www.w3.org/2000/svg"> 
<path fill-rule="evenodd" clip-rule="evenodd" d="M13.2992 1.0935C13.4069 1.2194 13.4602 1.38289 13.4473 1.54806C13.4345 1.71322 13.3567 1.86654 13.2309 1.97433L7.39754 6.97433C7.28427 7.07138 7.14003 7.12473 6.99087 7.12473C6.84171 7.12473 6.69747 7.07138 6.5842 6.97433L0.750868 1.97433C0.631217 1.86476 0.558862 1.71296 0.549098 1.55101C0.539334 1.38906 0.592928 1.22967 0.698548 1.10651C0.804169 0.983363 0.953538 0.906109 1.11508 0.891083C1.27662 0.876057 1.43768 0.924438 1.5642 1.026L6.99087 5.67683L12.4175 1.026C12.5432 0.918127 12.7066 0.864558 12.8717 0.877059C13.0369 0.889559 13.1903 0.967105 13.2984 1.09266L13.2992 1.0935Z" fill="currentColor"/>
</svg>
